<svg width="512" height="512" viewBox="0 0 512 512" fill="none" xmlns="http://www.w3.org/2000/svg">
  <rect width="512" height="512" rx="112" fill="#176B5B"/>
  <rect x="64" y="64" width="384" height="384" rx="84" fill="#D7F2E8"/>
  <path d="M149 176L221 338H184L123 176H149Z" fill="#102821"/>
  <path d="M236 338L308 176H345L270 338H236Z" fill="#102821"/>
  <path d="M351 337C329 337 311 331 297 320L311 291C324 301 338 306 354 306C371 306 381 300 381 290C381 282 374 277 359 273L340 268C313 260 299 244 299 222C299 194 323 174 358 174C379 174 397 181 411 193L397 221C386 211 372 205 357 205C341 205 333 211 333 221C333 228 338 234 352 238L372 243C401 251 416 267 416 289C416 319 391 337 351 337Z" fill="#102821"/>
</svg>
