<svg width="192" height="192" viewBox="0 0 192 192" fill="none" xmlns="http://www.w3.org/2000/svg">
  <rect width="192" height="192" rx="42" fill="#176B5B"/>
  <rect x="24" y="24" width="144" height="144" rx="32" fill="#D7F2E8"/>
  <path d="M56 66L83 127H69L46 66H56Z" fill="#102821"/>
  <path d="M88 127L115 66H129L101 127H88Z" fill="#102821"/>
  <path d="M131 126C123 126 116 124 111 120L116 109C121 113 126 115 132 115C138 115 142 113 142 109C142 106 140 104 134 102L127 100C117 97 112 91 112 83C112 72 121 65 134 65C142 65 148 67 153 72L148 82C144 78 139 76 134 76C128 76 125 78 125 82C125 85 127 87 132 89L139 91C150 94 155 100 155 108C155 119 146 126 131 126Z" fill="#102821"/>
</svg>
